<?xml version="1.0"?>
<svg enable-background="new 0 0 900 600" height="600" viewBox="0 0 900 600" width="900" version="1.1" id="svg23" xml:space="preserve" xmlns:inkscape="http://www.inkscape.org/namespaces/inkscape" xmlns:sodipodi="http://sodipodi.sourceforge.net/DTD/sodipodi-0.dtd" xmlns="http://www.w3.org/2000/svg" xmlns:svg="http://www.w3.org/2000/svg"><defs id="defs23"></defs><namedview id="namedview23" pagecolor="#ffffff" bordercolor="#000000" borderopacity="0.25"></namedview><clipPath id="a"><path d="m0 0h899.963v600h-899.963z" id="path1"></path></clipPath><path d="m0 0h899.963v600h-899.963z" fill="#fff" id="path2"></path><ellipse cx="450.06961" cy="195.09909" fill="#000095" id="circle1" rx="67.935745" ry="68.683197" style="stroke-width:0.875749;fill:#002e84;fill-opacity:1"></ellipse><path fill="#000095" d="m 344.15952,163.92748 c 12.71617,-47.10963 55.39375,-81.89151 105.91007,-81.89151 50.51633,0 93.19391,34.78188 105.91008,81.89151 48.2518,-2.3775 94.15197,27.91355 109.82945,76.52013 15.59038,48.60657 -3.91937,100.38313 -44.33242,127.15199 17.15813,45.6127 2.7871,99.2384 -38.06144,129.1772 -40.84854,30.0269 -95.63262,27.2091 -133.34567,-3.3461 -37.62594,30.5552 -92.41002,33.373 -133.34566,3.3461 -40.84854,-30.0269 -55.21957,-83.5645 -38.06144,-129.1772 -40.41305,-26.76886 -59.92281,-78.54542 -44.33242,-127.15199 15.67748,-48.60658 61.57765,-78.89763 109.82945,-76.52013 z M 450.06959,66.186 c -53.47762,0 -99.29069,34.16549 -117.3198,81.97956 -50.51632,2.55361 -96.76488,36.01465 -113.31333,87.439 -16.54845,51.42434 1.39356,106.01868 40.84854,138.07084 -13.23876,49.3991 4.00647,104.1695 47.20663,135.9575 43.28727,31.788 100.16167,31.4358 142.49087,3.4342 42.32919,28.0016 99.2907,28.3538 142.49086,-3.4342 43.28726,-31.788 60.53249,-86.6465 47.20663,-135.9575 39.45499,-32.05216 57.39699,-86.6465 40.84854,-138.07084 C 663.98008,184.18021 617.73152,150.63111 567.2152,148.16556 549.36029,100.26343 503.54722,66.186 450.06959,66.186 Z" id="path2-4" style="stroke-width:0.875749;fill:#002e84;fill-opacity:1"></path><path fill="#fe0000" d="m 450.06959,95.24428 c -48.33889,0 -88.57775,36.19076 -95.54552,83.03622 -46.33566,-7.74887 -92.75842,19.81247 -107.65202,66.21765 -14.89361,46.49325 6.61938,96.33259 48.60018,117.55394 -21.68718,42.17851 -10.10326,95.36401 29.00334,124.07001 39.1066,28.7061 92.67132,23.3347 125.59402,-10.3905 33.00981,33.8133 86.57453,39.0966 125.59403,10.3905 39.1066,-28.706 50.60342,-81.8915 29.00334,-123.98195 41.9808,-21.22135 63.58088,-71.14875 48.60018,-117.55394 -14.89361,-46.49324 -61.40346,-73.96652 -107.65202,-66.21765 -6.96777,-47.02158 -47.20663,-83.12428 -95.54553,-83.12428 z m -83.61322,97.74147 c 0,-46.5813 37.53886,-84.53317 83.61322,-84.53317 46.07437,0 83.61322,37.95187 83.61322,84.53317 v 2.02528 c 0.60968,-0.26417 1.21936,-0.44028 1.91614,-0.61639 43.80984,-14.35303 91.10357,10.03831 105.3875,54.24212 14.19683,44.29185 -9.84198,92.10593 -53.65182,106.54701 -0.60968,0.17611 -1.30646,0.44028 -1.91614,0.61639 0.43549,0.52833 0.78388,1.05666 1.21936,1.67305 27.0872,37.68769 18.72588,90.69709 -18.46458,118.08229 -37.27756,27.3852 -89.71002,18.9319 -116.79722,-18.6678 -0.43548,-0.5283 -0.78387,-1.1447 -1.13226,-1.673 -0.34839,0.5283 -0.78388,1.1447 -1.13226,1.673 -27.0872,37.6877 -79.51966,46.053 -116.79722,18.6678 -37.27756,-27.3852 -45.55179,-80.3946 -18.46459,-118.08229 0.43549,-0.52833 0.78388,-1.05666 1.21936,-1.67305 -0.60968,-0.17611 -1.30645,-0.35222 -1.91613,-0.61639 -43.80985,-14.35303 -67.93575,-62.25516 -53.65182,-106.54701 14.19683,-44.29186 61.57765,-68.6832 105.3875,-54.24212 0.60968,0.17611 1.30645,0.44028 1.91613,0.61639 -0.34839,-0.70445 -0.34839,-1.40889 -0.34839,-2.02528 z" id="path3-8" style="stroke-width:0.875749;fill:#e5191a;fill-opacity:1"></path><g fill="#ffffff" transform="matrix(0.07781255,0,0,0.07866868,161.83218,15.99024)" id="g4">
    <circle cx="3704.3" cy="2274.6001" r="389.29999" id="circle3"></circle>
    <path d="m 3704.3,1496 90.7,347.7 c -26.5,-7.6 -60.5,-11.3 -90.7,-11.3 -30.2,0 -64.3,3.8 -90.7,11.3 z m 136,359.1 253.2,-257 -94.5,347.7 c -45.3,-37.8 -98.2,-71.8 -158.7,-90.7 z m 192.8,124.7 347.7,-94.5 -257,253.2 c -18.9,-60.4 -49.1,-113.3 -90.7,-158.7 z m 105.8,204.1 347.7,90.7 -347.7,94.5 c 3.8,-30.2 7.6,-60.5 7.6,-94.5 0,-30.2 -3.8,-60.5 -7.6,-90.7 z m -15.1,226.8 257,257 -347.7,-94.5 c 41.6,-45.4 71.8,-102.1 90.7,-162.5 z m -124.7,192.7 94.5,347.7 -253.2,-253.2 c 60.4,-18.9 113.3,-52.9 158.7,-94.5 z m -204.1,105.9 -90.7,347.7 -90.7,-347.7 c 26.5,7.6 60.5,7.6 90.7,7.6 30.2,0 64.2,-0.1 90.7,-7.6 z m -226.8,-11.4 -253.2,253.2 94.5,-347.7 c 45.3,41.6 98.2,75.6 158.7,94.5 z m -192.7,-124.7 -347.7,94.5 257,-257 c 18.8,60.4 49.1,117.1 90.7,162.5 z m -105.9,-204.1 -347.7,-94.5 347.7,-90.7 c -3.8,30.2 -7.6,60.5 -7.6,90.7 0.1,34 3.8,64.3 7.6,94.5 z m 15.1,-230.6 -257,-253.2 347.7,94.5 c -41.5,45.4 -71.8,98.3 -90.7,158.7 z m 124.8,-192.7 -94.5,-347.7 253.2,257 c -60.5,18.9 -113.4,52.9 -158.7,90.7 z" id="path4-8"></path>
  </g><g stroke-width="1.46987" transform="matrix(0.59254773,0,0,0.5990672,349.61045,293.50782)" id="g7">
    <path fill="#ee334e" d="M 152.6,2 C 128.2,-3.6 94.9,2.6 63.5,20.7 14.2,49.1 -11.8,96.1 5.2,125.6 16.1,144.5 42,151.6 72.1,147 58.3,143.8 47.4,136.9 41.3,126.3 24.3,96.8 50.3,49.8 99.5,21.4 117.2,11.1 135.6,4.7 152.6,2" id="path5-2"></path>
    <path fill="#00a651" d="m 153,118.5 c 7.3,23.9 29.3,49.7 60.8,67.8 49.2,28.4 102.9,27.5 120,-2 10.9,-18.9 4.2,-44.9 -14.9,-68.6 4.1,13.5 3.6,26.4 -2.5,37.1 -17,29.5 -70.8,30.4 -120,2 -17.8,-10.2 -32.6,-22.9 -43.4,-36.3" id="path6-4"></path>
    <path fill="#0081c8" d="m 119.7,60.5 c -17.1,18.3 -28.3,50.2 -28.3,86.6 0,56.8 27.6,102.9 61.7,102.9 21.8,0 40.9,-18.8 51.9,-47.2 -9.6,10.3 -21.1,16.3 -33.4,16.3 -34.1,0 -61.7,-46.1 -61.7,-102.9 -0.1,-20.5 3.5,-39.6 9.8,-55.7" id="path7-5"></path>
  </g></svg>